<?xml version="1.0" encoding="UTF-8" standalone="no"?>
<!-- Created with Inkscape (http://www.inkscape.org/) -->

<svg
   width="512"
   height="512"
   viewBox="0 0 135.46666 135.46667"
   version="1.1"
   id="svg1"
   sodipodi:docname="logo.svg"
   inkscape:version="1.4 (86a8ad7, 2024-10-11)"
   inkscape:export-filename="logo.png"
   inkscape:export-xdpi="103.07693"
   inkscape:export-ydpi="103.07693"
   xmlns:inkscape="http://www.inkscape.org/namespaces/inkscape"
   xmlns:sodipodi="http://sodipodi.sourceforge.net/DTD/sodipodi-0.dtd"
   xmlns="http://www.w3.org/2000/svg"
   xmlns:svg="http://www.w3.org/2000/svg">
  <sodipodi:namedview
     id="namedview1"
     pagecolor="#ffffff"
     bordercolor="#000000"
     borderopacity="0.25"
     inkscape:showpageshadow="2"
     inkscape:pageopacity="0.0"
     inkscape:pagecheckerboard="true"
     inkscape:deskcolor="#d1d1d1"
     inkscape:document-units="mm"
     inkscape:zoom="1.4702523"
     inkscape:cx="358.44188"
     inkscape:cy="173.43962"
     inkscape:window-width="2110"
     inkscape:window-height="1328"
     inkscape:window-x="3865"
     inkscape:window-y="16"
     inkscape:window-maximized="0"
     inkscape:current-layer="g64"
     showgrid="false" />
  <defs
     id="defs1" />
  <g
     inkscape:label="Layer 1"
     inkscape:groupmode="layer"
     id="layer1">
    <g
       id="g64"
       transform="matrix(1.1542347,0,0,1.1542347,-10.446827,-10.446827)">
      <path
         id="rect1-8-8"
         style="fill:#414758;fill-opacity:1;stroke-width:15.7017;stroke-linecap:round;stroke-linejoin:round"
         d="m 21.259684,13.079822 c -4.616393,0 -8.179862,3.56347 -8.179862,8.179862 v 25.227918 h 33.40778 v -33.40778 z m 29.090731,0 v 33.40778 h 34.765837 v -33.40778 z m 38.62865,0 v 33.40778 H 122.38684 V 21.259684 c 0,-4.616394 -3.56347,-8.179862 -8.17986,-8.179862 z"
         sodipodi:nodetypes="sscccsccccccccssc" />
      <path
         id="rect1-8"
         style="fill:#7e8394;stroke-width:15.7017;stroke-linecap:round;stroke-linejoin:round"
         d="m 13.079822,50.350415 v 34.765837 h 33.40778 V 50.350415 Z m 75.899243,0 V 85.116252 H 122.38684 V 50.350415 Z m -75.899243,38.62865 v 25.227915 c 0,4.61639 3.563472,8.17986 8.179862,8.17986 H 46.487602 V 88.979065 Z m 37.270593,0 V 122.38684 H 85.116252 V 88.979065 Z m 38.62865,0 v 33.407775 h 25.227915 c 4.61639,0 8.17986,-3.56347 8.17986,-8.17986 V 88.979065 Z"
         sodipodi:nodetypes="cccccccccccssccccccccccsscc" />
      <path
         id="rect1-7"
         style="fill:#7b44b8;stroke-width:15.7017;stroke-linecap:round;stroke-linejoin:round"
         d="M 50.35051,50.350515 H 85.11613 V 85.116137 H 50.35051 Z" />
    </g>
  </g>
</svg>
